<svg width="11" height="8" viewBox="0 0 11 8" fill="none" xmlns="http://www.w3.org/2000/svg">
<path d="M5.52826 7.0625C5.78021 7.0625 5.99701 6.96289 6.19037 6.76953L10.579 2.26953C10.7314 2.11719 10.8134 1.92969 10.8134 1.70703C10.8134 1.25 10.4501 0.886719 9.99896 0.886719C9.77631 0.886719 9.56537 0.974609 9.40131 1.13867L5.53412 5.12305L1.66107 1.13867C1.49701 0.980469 1.29193 0.886719 1.06342 0.886719C0.612244 0.886719 0.248962 1.25 0.248962 1.70703C0.248962 1.92969 0.330994 2.11719 0.483337 2.27539L4.87201 6.76953C5.07709 6.96875 5.28217 7.0625 5.52826 7.0625Z" fill="#69788C"/>
</svg>
