<svg width="22" height="17" viewBox="0 0 22 17" fill="none" xmlns="http://www.w3.org/2000/svg">
<path fill-rule="evenodd" clip-rule="evenodd" d="M4.82129 0.527832L2.74365 2.60571L3.68115 3.54333C2.0542 4.83081 0.773438 6.53748 0 8.5C1.72998 12.89 6 16 11 16C12.5254 16 13.9829 15.7104 15.3213 15.1833L16.9131 16.775L18.9907 14.6973L17.9966 13.7029C19.7769 12.3905 21.1763 10.5903 22 8.5C20.27 4.10999 16 1 11 1C9.32031 1 7.72314 1.35083 6.27686 1.9834L4.82129 0.527832ZM6.48584 6.34802C6.17432 6.99988 6 7.72974 6 8.5C6 11.26 8.24023 13.5 11 13.5C11.77 13.5 12.5 13.3256 13.1519 13.0139L11.582 11.4438C11.394 11.4807 11.1992 11.5 11 11.5C9.33984 11.5 8 10.16 8 8.5C8 8.3009 8.01953 8.10632 8.05615 7.91809L6.48584 6.34802ZM9.97314 5.67957L8.47656 4.18323C9.21729 3.74902 10.0801 3.5 11 3.5C13.7598 3.5 16 5.73999 16 8.5C16 9.42017 15.751 10.2825 15.3169 11.0233L13.8203 9.52698C13.9365 9.20679 14 8.86096 14 8.5C14 6.83997 12.6602 5.5 11 5.5C10.6392 5.5 10.2935 5.56335 9.97314 5.67957Z" fill="black" fill-opacity="0.6"/>
</svg>
